<svg data-v-0dd9719b="" version="1.0" xmlns="http://www.w3.org/2000/svg" xmlns:xlink="http://www.w3.org/1999/xlink" width="100%" height="100%" viewBox="0 0 340.000000 250.000000" preserveAspectRatio="xMidYMid meet" color-interpolation-filters="sRGB" style="margin: auto;"> <rect data-v-0dd9719b="" x="0" y="0" width="100%" height="100%" fill="#fff" fill-opacity="1" class="background"></rect> <rect data-v-0dd9719b="" x="0" y="0" width="100%" height="100%" fill="url(#watermark)" fill-opacity="1" class="watermarklayer"></rect> <g data-v-0dd9719b="" fill="#333" class="icon-text-wrapper icon-svg-group iconsvg" transform="translate(81.20999908447266,83.3845100402832)"><g class="iconsvg-imagesvg" transform="translate(58.790000915527344,0)"><g><rect fill="#333" fill-opacity="0" stroke-width="2" x="0" y="0" width="60" height="60.15097895718253" class="image-rect"></rect> <svg x="0" y="0" width="60" height="60.15097895718253" filtersec="colorsb2328449784" class="image-svg-svg primary" style="overflow: visible;"><svg xmlns="http://www.w3.org/2000/svg" viewBox="0 0.027273884043097496 93.50999450683594 93.74490356445312"><title>资源 156</title><path d="M87.82 47.86a100.44 100.44 0 0 1-16.58-2.14C59.11 43 48.86 37.14 40.82 27.55c-5.36-6.39-9.36-13.6-13-21-1-2.07-1-2.09 1.1-2.95A45.27 45.27 0 0 1 58 1.5c15.21 4 25.9 13.38 32.06 27.83a45 45 0 0 1 3.45 17.26c0 1-.28 1.34-1.28 1.29-1.46-.07-2.93-.02-4.41-.02zM10.09 75.92a6.7 6.7 0 0 1 .84.15 66.39 66.39 0 0 0 26.71 3 98.68 98.68 0 0 0 25-5.15c7.24-2.52 14.37-5.36 21.56-8 1.92-.72 3.87-1.36 5.93-1.92a33.25 33.25 0 0 1-4.37 8.81 46 46 0 0 1-26.94 19.34C37.87 97.75 18.9 88 10.09 75.92z" fill="#04153e"></path><path d="M.11 50.19c.46.23.83.39 1.19.59 3.62 2 7.2 4.07 10.88 5.93a70.8 70.8 0 0 0 23.72 7.12 91.92 91.92 0 0 0 24.24-.35c7.85-1.16 15.65-2.64 23.47-4 2.39-.4 4.79-.8 7.18-1.18a7.35 7.35 0 0 1 1.15 0c-.08 1.83-.21 2-1.78 2.36-7.16 1.85-14.4 3.74-21.62 5.56a117.73 117.73 0 0 1-21.37 3.86 148 148 0 0 1-15 .26 55.62 55.62 0 0 1-18.05-3.71c-3.84-1.49-7.55-3.33-11.29-5.06a1.74 1.74 0 0 1-.93-1C1.19 57.37.6 54.18 0 51a3.1 3.1 0 0 1 .11-.81z" fill="#2c86d8"></path><path d="M58.24 58.54a75 75 0 0 1-21.47-2.13 65.43 65.43 0 0 1-19.07-8c-4.78-3-9.45-6.15-14.18-9.23a13.77 13.77 0 0 0-1.76-1.07A1.25 1.25 0 0 1 1 36.44c.66-2.16 1.34-4.32 2-6.48.25-.84.67-.83 1.28-.35 3.59 2.81 7.23 5.55 10.78 8.42A78.49 78.49 0 0 0 35.91 50.7a70.31 70.31 0 0 0 14.71 3.91c10.33 1.61 20.67 1.23 31 .45 3.37-.26 6.75-.46 10.12-.68.42 0 1-.23 1 .52s-.32.94-.94 1l-7.44.75C78.19 57.29 72 58 65.72 58.51c-2.48.2-4.98.03-7.48.03z" fill="#2c86d8"></path><path d="M81.12 52.67c-9.15.1-16.88-.28-24.51-1.79A61 61 0 0 1 26 35.45c-4.89-4.6-9.44-9.58-14.14-14.38-.6-.61-1.17-1.25-1.81-1.8s-.55-1-.08-1.49c.76-.86 1.5-1.74 2.26-2.6s.91-1 1.7 0c2.31 2.81 4.59 5.64 6.9 8.46 5.58 6.8 11.57 13.15 19.12 17.84a63.6 63.6 0 0 0 22.35 8.38c8.93 1.63 17.94 1.71 27 1.56 1 0 2-.07 3 0 .29 0 .57.27.85.42-.28.18-.56.53-.84.54-4.18.11-8.38.21-11.19.29z" fill="#2c86d8"></path><path d="M93.12 49.62a6.76 6.76 0 0 1-.89.11 142.26 142.26 0 0 1-20.53-1.12c-9.8-1.4-19-4.41-27.22-10.15A57.61 57.61 0 0 1 30.75 25c-3.64-5-7-10.24-10.43-15.39-.21-.32-.47-1-.35-1.09a7.33 7.33 0 0 1 1.79-1.16c.09 0 .49.44.67.73 2.45 4 4.78 8 7.33 11.89a64.31 64.31 0 0 0 17.1 18.15 56.28 56.28 0 0 0 17.36 8c9.08 2.48 18.36 3.07 27.7 3a10.13 10.13 0 0 1 1.22.14z" fill="#2c86d8"></path></svg></svg> <!----></g></g> <g transform="translate(0,67.1509780883789)"><g data-gra="path-name" fill-rule="" class="tp-name iconsvg-namesvg"><g transform="scale(1)"><g><path d="M2.1-17.78L8.64-17.78 6.73-4.43 17.36-4.43 17.1-1.7 2.93-1.7Q2.1-1.7 1.69-2.24 1.28-2.78 1.28-3.61L1.28-3.61 2.93-16.7 2.1-17.78ZM20.71-17.78L27.27-17.78 24.8-1.7 19.63-1.7 21.53-16.7 20.71-17.78ZM49.12-17.78L48.58-13.15 43.13-13.15 43.38-15.06 36.85-15.06 35.48-4.43 42.02-4.43 42.3-7.7 40.65-10.43 48.01-10.43 46.93-1.7 31.65-1.7Q31.25-1.7 30.91-1.85 30.57-1.99 30.33-2.24 30.09-2.5 30-2.86 29.91-3.21 30.03-3.61L30.03-3.61 31.93-17.78 49.12-17.78ZM52.76-17.78L59.32-17.78 58.49-11.53 64.83-11.53 65.6-16.7 64.77-17.78 71.05-17.78 68.86-1.7 63.41-1.7 64.49-8.81 58.13-8.81 57.13-1.7 51.68-1.7 53.86-16.99 52.76-17.78ZM83.15-1.7L77.7-1.7 79.6-15.06 73.61-15.06 73.89-17.78 91.34-17.78 90.8-15.06 85.06-15.06 83.15-1.7ZM99.74-7.98L103.3-17.24 107.67-17.24 108.47-7.98 112.3-17.78 116.93-17.78 110.4-1.7 105.48-1.7 104.38-9.6 101.11-1.7 96.19-1.7 94.29-17.24 93.75-17.78 98.92-17.78 99.74-7.98ZM124.74-17.78L135.94-17.78 138.1-1.7 133.21-1.7 132.64-6.08 125.82-6.08 123.92-1.7 119.29-1.7 125.57-16.99 124.74-17.78ZM131.56-15.06L129.66-15.06 126.93-8.81 132.39-8.81 131.56-15.06ZM141.68-17.78L159.4-17.78 158.32-9.6Q158.32-9.2 158.14-8.85 157.95-8.49 157.64-8.24 157.33-7.98 156.95-7.84 156.56-7.7 156.14-7.7L156.14-7.7 152.59-7.7 158.32-1.7 152.33-1.7 146.88-7.7 146.05-1.7 140.6-1.7 142.5-16.7 141.68-17.78ZM153.69-15.06L147.7-15.06 147.13-10.43 153.15-10.43 153.69-15.06ZM163.32-17.78L178.86-17.78 178.61-15.06 169.6-15.06 169.06-11.53 177.5-11.53 177.24-8.81 168.49-8.81 167.95-4.43 177.5-4.43 177.24-1.7 161.96-1.7 164.15-16.7 163.32-17.78Z" transform="translate(-1.2799999713897705, 17.780000686645508)"></path></g> <!----> <!----> <!----> <!----> <!----> <!----> <!----></g></g> <!----></g></g><defs v-gra="od"></defs></svg>